<svg width="24" height="24" viewBox="0 0 24 24" fill="none" xmlns="http://www.w3.org/2000/svg">
<rect width="24" height="24" rx="12" fill="#DDDDDD"/>
<path d="M15.4545 17.8182H8.54546C8.07273 17.8182 7.6 17.5637 7.34546 17.1637C7.05455 16.7637 7.01818 16.2546 7.2 15.7819C7.92727 13.9273 9.85455 12.691 12 12.691C14.1455 12.691 16.0727 13.9273 16.8 15.7819C16.9818 16.2182 16.9455 16.7637 16.6545 17.1637C16.4 17.5637 15.9273 17.8182 15.4545 17.8182ZM12 12.0001C10.4 12.0001 9.09091 10.691 9.09091 9.09098C9.09091 7.49098 10.4 6.18188 12 6.18188C13.6 6.18188 14.9091 7.49098 14.9091 9.09098C14.9091 10.691 13.6 12.0001 12 12.0001Z" fill="white"/>
</svg>
