<svg width="24" height="24" viewBox="0 0 24 24" fill="none" xmlns="http://www.w3.org/2000/svg">
<circle cx="12" cy="12" r="12" fill="#3586FF"/>
<path d="M7.10306 17.568C6.80439 17.568 6.55906 17.4987 6.36706 17.36C6.18573 17.2213 6.06839 17.0347 6.01506 16.8C5.97239 16.5653 6.02039 16.304 6.15906 16.016L10.2551 7.04C10.4257 6.67733 10.6284 6.416 10.8631 6.256C11.0977 6.08533 11.3697 6 11.6791 6C11.9884 6 12.2604 6.08533 12.4951 6.256C12.7297 6.416 12.9271 6.67733 13.0871 7.04L17.2151 16.016C17.3537 16.304 17.4017 16.5707 17.3591 16.816C17.3271 17.0507 17.2204 17.2373 17.0391 17.376C16.8577 17.504 16.6231 17.568 16.3351 17.568C15.9724 17.568 15.6897 17.4827 15.4871 17.312C15.2951 17.1413 15.1244 16.8747 14.9751 16.512L14.0151 14.288L15.0071 14.976H8.33506L9.32706 14.288L8.38306 16.512C8.22306 16.8853 8.05239 17.1573 7.87106 17.328C7.70039 17.488 7.44439 17.568 7.10306 17.568ZM11.6471 8.784L9.59906 13.664L9.16706 13.04H14.1751L13.7431 13.664L11.6791 8.784H11.6471Z" fill="white"/>
</svg>
