<svg width="24" height="24" viewBox="0 0 24 24" fill="none" xmlns="http://www.w3.org/2000/svg">
<path d="M9.83203 15.7429V18.8351C9.83203 19.0511 9.97104 19.2431 10.1761 19.3101C10.2271 19.3271 10.2801 19.3351 10.3321 19.3351C10.4881 19.3351 10.6391 19.2611 10.7351 19.1311L12.5432 16.669L9.83203 15.7429Z" fill="#DEDEDE"/>
<path d="M19.7904 4.0927C19.6374 3.98369 19.4354 3.96969 19.2694 4.0567L4.26844 11.8902C4.09142 11.9822 3.98642 12.1722 4.00142 12.3712C4.01642 12.5712 4.14943 12.7412 4.33844 12.8073L8.5087 14.2323L17.3893 6.63886L10.5168 14.9184L17.5053 17.3065C17.5583 17.3245 17.6123 17.3335 17.6673 17.3335C17.7583 17.3335 17.8483 17.3085 17.9273 17.2605C18.0543 17.1835 18.1403 17.0535 18.1613 16.9065L19.9944 4.57273C20.0224 4.38772 19.9434 4.20171 19.7904 4.0927Z" fill="#BDBDBD"/>
</svg>
