<svg width="16" height="16" viewBox="0 0 16 16" fill="none" xmlns="http://www.w3.org/2000/svg">
<path fill-rule="evenodd" clip-rule="evenodd" d="M7.99998 1.16675C11.9693 1.16675 15.1666 4.09475 15.1666 7.66675C15.1666 9.39675 14.4206 10.9727 13.198 12.1407L13.4953 14.2641C13.5206 14.4481 13.4426 14.6314 13.292 14.7394C13.1406 14.8481 12.9426 14.8634 12.7766 14.7807L10.6386 13.7114C9.82265 14.0047 8.93198 14.1667 7.99998 14.1667C4.03065 14.1667 0.833313 11.2387 0.833313 7.66675C0.833313 4.09475 4.03065 1.16675 7.99998 1.16675ZM7.99998 2.16675C4.60998 2.16675 1.83331 4.61608 1.83331 7.66675C1.83331 10.7174 4.60998 13.1667 7.99998 13.1667C8.88265 13.1667 9.72265 13.0007 10.4833 12.7014C10.6153 12.6494 10.7633 12.6561 10.89 12.7194L12.3733 13.4607L12.1713 12.0194C12.148 11.8527 12.21 11.6861 12.336 11.5754C13.4626 10.5807 14.1666 9.19808 14.1666 7.66675C14.1666 4.61608 11.39 2.16675 7.99998 2.16675Z" fill="#BBBBBB"/>
</svg>
