<svg width="24" height="24" viewBox="0 0 24 24" fill="none" xmlns="http://www.w3.org/2000/svg">
<path fill-rule="evenodd" clip-rule="evenodd" d="M12.0001 17.5059C8.70205 17.5059 5.72405 15.4279 3.96205 12.1459C5.72405 8.86389 8.70205 6.78589 12.0001 6.78589C15.2981 6.78589 18.2761 8.86389 20.0371 12.1459C18.2761 15.4279 15.2971 17.5059 12.0001 17.5059ZM12.0001 5.28589C7.89105 5.28589 4.37105 7.95589 2.44705 11.8109L2.27905 12.1459L2.44705 12.4809C4.37005 16.3359 7.89005 19.0059 12.0001 19.0059C16.1081 19.0059 19.6281 16.3359 21.5531 12.4809L21.7201 12.1459L21.5531 11.8109C19.6281 7.95689 16.1081 5.28689 12.0001 5.28689V5.28589ZM9.79005 12.1459C9.79005 10.8509 10.8011 9.84189 12.0001 9.84189C13.1991 9.84189 14.2101 10.8519 14.2101 12.1459C14.2101 13.4419 13.1991 14.4509 12.0001 14.4509C10.8011 14.4509 9.79005 13.4409 9.79005 12.1459ZM12.0001 8.34189C9.92905 8.34189 8.29005 10.0669 8.29005 12.1459C8.29005 14.2259 9.92905 15.9509 12.0001 15.9509C14.0711 15.9509 15.7101 14.2249 15.7101 12.1459C15.7101 10.0669 14.0721 8.34189 12.0001 8.34189Z" fill="#BBBBBB"/>
</svg>
