<svg width="15" height="10" viewBox="0 0 15 10" fill="none" xmlns="http://www.w3.org/2000/svg">
<path d="M0.102266 3.406L0.158266 0.802H8.37627L8.41827 3.406H7.25627L7.00427 1.586H5.46427C5.45493 2.16467 5.4456 2.75267 5.43627 3.35C5.43627 3.938 5.43627 4.53533 5.43627 5.142V5.646C5.43627 6.22467 5.43627 6.80333 5.43627 7.382C5.4456 7.96067 5.45493 8.53933 5.46427 9.118L6.66827 9.244V10H1.86627V9.244L3.05627 9.118C3.07493 8.54867 3.08427 7.97467 3.08427 7.396C3.08427 6.81733 3.08427 6.23867 3.08427 5.66V5.142C3.08427 4.554 3.08427 3.966 3.08427 3.378C3.08427 2.78067 3.07493 2.18333 3.05627 1.586H1.53027L1.26427 3.406H0.102266ZM8.89531 5.29L8.93531 3.43H14.8053L14.8353 5.29H14.0053L13.8253 3.99H12.7253C12.7186 4.40333 12.712 4.82333 12.7053 5.25C12.7053 5.67 12.7053 6.09667 12.7053 6.53V6.89C12.7053 7.30333 12.7053 7.71667 12.7053 8.13C12.712 8.54333 12.7186 8.95667 12.7253 9.37L13.5853 9.46V10H10.1553V9.46L11.0053 9.37C11.0186 8.96333 11.0253 8.55333 11.0253 8.14C11.0253 7.72667 11.0253 7.31333 11.0253 6.9V6.53C11.0253 6.11 11.0253 5.69 11.0253 5.27C11.0253 4.84333 11.0186 4.41667 11.0053 3.99H9.91531L9.72531 5.29H8.89531Z" fill="#222222"/>
</svg>
