<svg width="34" height="34" viewBox="0 0 34 34" fill="none" xmlns="http://www.w3.org/2000/svg">
<path d="M21.8223 9.83325H13.8223C12.9825 9.83325 12.177 10.1669 11.5832 10.7607C10.9893 11.3546 10.6557 12.1601 10.6557 12.9999V20.9999C10.6525 21.0108 10.6525 21.0224 10.6557 21.0333C10.6645 21.8673 11.002 22.6642 11.5949 23.2509C12.1878 23.8376 12.9882 24.1666 13.8223 24.1666H21.8223C22.653 24.1649 23.4498 23.8369 24.0409 23.2533C24.632 22.6697 24.9701 21.8772 24.9823 21.0466V12.9999C24.9824 12.1612 24.6496 11.3568 24.0572 10.7631C23.4648 10.1694 22.661 9.83502 21.8223 9.83325ZM23.989 19.6666L21.2023 16.4799C21.0253 16.2914 20.8115 16.1412 20.5742 16.0385C20.3368 15.9358 20.081 15.8829 19.8223 15.8829C19.5637 15.8829 19.3079 15.9358 19.0705 16.0385C18.8332 16.1412 18.6194 16.2914 18.4423 16.4799L16.529 18.6666L15.9023 17.9066C15.7297 17.6994 15.5136 17.5328 15.2693 17.4184C15.0251 17.304 14.7587 17.2448 14.489 17.2448C14.2193 17.2448 13.9529 17.304 13.7087 17.4184C13.4645 17.5328 13.2484 17.6994 13.0757 17.9066L11.6557 19.6199V12.9999C11.6574 12.4258 11.8863 11.8757 12.2922 11.4698C12.6982 11.0638 13.2483 10.835 13.8223 10.8333H21.8223C22.3964 10.835 22.9465 11.0638 23.3525 11.4698C23.7584 11.8757 23.9873 12.4258 23.989 12.9999V19.6666Z" fill="#222222"/>
<path d="M14.4886 14.9999C15.225 14.9999 15.8219 14.403 15.8219 13.6666C15.8219 12.9302 15.225 12.3333 14.4886 12.3333C13.7522 12.3333 13.1553 12.9302 13.1553 13.6666C13.1553 14.403 13.7522 14.9999 14.4886 14.9999Z" fill="#222222"/>
</svg>
