<svg width="34" height="34" viewBox="0 0 34 34" fill="none" xmlns="http://www.w3.org/2000/svg">
<path d="M19.737 11.8182H20.97V18.5597C20.97 19.2557 20.8059 19.8771 20.4778 20.424C20.153 20.9676 19.694 21.3968 19.1007 21.7116C18.5074 22.0232 17.8114 22.179 17.0126 22.179C16.2138 22.179 15.5178 22.0232 14.9245 21.7116C14.3313 21.3968 13.8706 20.9676 13.5424 20.424C13.2176 19.8771 13.0552 19.2557 13.0552 18.5597V11.8182H14.2882V18.4602C14.2882 18.9574 14.3975 19.3999 14.6163 19.7876C14.835 20.1721 15.1466 20.4754 15.551 20.6974C15.9586 20.9162 16.4458 21.0256 17.0126 21.0256C17.5794 21.0256 18.0666 20.9162 18.4743 20.6974C18.8819 20.4754 19.1935 20.1721 19.4089 19.7876C19.6277 19.3999 19.737 18.9574 19.737 18.4602V11.8182Z" fill="#222222"/>
<rect x="11.8223" y="24" width="11" height="1" fill="#222222"/>
</svg>
