<svg width="34" height="34" viewBox="0 0 34 34" fill="none" xmlns="http://www.w3.org/2000/svg">
<path d="M13.7072 22V11.8182H17.7839C18.533 11.8182 19.1577 11.9292 19.6582 12.1513C20.1587 12.3733 20.5349 12.6816 20.7868 13.076C21.0386 13.4671 21.1646 13.9179 21.1646 14.4283C21.1646 14.826 21.085 15.1757 20.926 15.4773C20.7669 15.7756 20.5481 16.0208 20.2697 16.2131C19.9946 16.402 19.6797 16.5362 19.3251 16.6158V16.7152C19.7129 16.7318 20.0758 16.8411 20.4139 17.0433C20.7553 17.2455 21.032 17.5289 21.2441 17.8935C21.4563 18.2547 21.5623 18.6856 21.5623 19.1861C21.5623 19.7263 21.4281 20.2086 21.1596 20.6328C20.8945 21.0537 20.5017 21.3868 19.9814 21.6321C19.461 21.8774 18.8197 22 18.0574 22H13.7072ZM15.8599 20.2401H17.6149C18.2148 20.2401 18.6523 20.1257 18.9274 19.897C19.2025 19.665 19.34 19.3568 19.34 18.9723C19.34 18.6906 19.2721 18.442 19.1362 18.2266C19.0003 18.0111 18.8064 17.8421 18.5545 17.7195C18.3059 17.5968 18.0093 17.5355 17.6646 17.5355H15.8599V20.2401ZM15.8599 16.0788H17.4558C17.7508 16.0788 18.0126 16.0275 18.2413 15.9247C18.4733 15.8187 18.6556 15.6695 18.7882 15.4773C18.9241 15.285 18.992 15.0547 18.992 14.7862C18.992 14.4183 18.8611 14.1217 18.5993 13.8963C18.3407 13.6709 17.9728 13.5582 17.4956 13.5582H15.8599V16.0788Z" fill="#222222"/>
</svg>
