<svg width="24" height="24" viewBox="0 0 24 24" fill="none" xmlns="http://www.w3.org/2000/svg">
<path fill-rule="evenodd" clip-rule="evenodd" d="M18.265 19.635L4.453 5.087L5.485 4L19.298 18.548L18.265 19.635Z" fill="#BBBBBB"/>
<path fill-rule="evenodd" clip-rule="evenodd" d="M18.961 16.0571C20.0206 15.0199 20.8969 13.8108 21.553 12.4811L21.72 12.1461L21.553 11.8111C19.628 7.95711 16.108 5.28711 12 5.28711C11.014 5.28711 10.062 5.44011 9.15799 5.72711L10.334 6.96611C10.877 6.84811 11.434 6.78611 12 6.78611C15.298 6.78611 18.276 8.86411 20.037 12.1461C19.4836 13.1898 18.7725 14.142 17.929 14.9691L18.961 16.0571ZM15.684 12.6031C15.7019 12.4514 15.7109 12.2988 15.711 12.1461C15.711 10.0671 14.071 8.34211 12 8.34211C11.883 8.34211 11.768 8.34711 11.655 8.35811L15.685 12.6031H15.684ZM10.096 8.88011C9.5411 9.22528 9.08375 9.70668 8.76746 10.2785C8.45117 10.8504 8.28646 11.4936 8.28899 12.1471C8.28899 14.2271 9.92899 15.9521 12 15.9521C13.328 15.9521 14.478 15.2431 15.133 14.1871L14.041 13.0371C13.704 13.8771 12.906 14.4521 12 14.4521C10.801 14.4521 9.78999 13.4421 9.78999 12.1471C9.78999 11.1671 10.369 10.3511 11.17 10.0111L10.096 8.88011ZM8.76799 7.48011C6.80899 8.34711 5.12199 9.98611 3.96199 12.1471C5.72399 15.4291 8.70199 17.5071 12 17.5071C13.725 17.5071 15.362 16.9391 16.784 15.9271L17.825 17.0241C16.141 18.2751 14.151 19.0071 12 19.0071C7.89099 19.0071 4.37099 16.3371 2.44699 12.4821L2.27899 12.1471L2.44699 11.8121C3.64999 9.40211 5.47699 7.45611 7.68099 6.33511L8.76799 7.48011Z" fill="#BBBBBB"/>
</svg>
