<svg width="24" height="24" viewBox="0 0 24 24" fill="none" xmlns="http://www.w3.org/2000/svg">
<path d="M8.38443 22.263C9.11075 22.263 9.31601 21.9788 9.31601 21.6156C9.31601 21.2524 9.31601 20.463 9.30022 19.3419C5.52654 20.1472 4.72127 17.5419 4.72127 17.5419C4.10548 16.0103 3.20548 15.584 3.20548 15.584C1.9739 14.763 3.30022 14.7788 3.30022 14.7788C4.65811 14.8735 5.38443 16.1524 5.38443 16.1524C6.60022 18.2051 8.55812 17.6051 9.3318 17.2577C9.39496 16.5788 9.69496 15.9314 10.2002 15.4577C7.18443 15.1261 4.01075 13.9735 4.01075 8.85771C3.99496 7.53139 4.50022 6.23665 5.41601 5.2735C5.25811 4.94192 4.80022 3.58402 5.52654 1.73665C5.52654 1.73665 6.66338 1.3735 9.26864 3.11034C11.495 2.51034 13.8318 2.51034 16.0581 3.11034C18.6318 1.38929 19.7844 1.73665 19.7844 1.73665C20.5107 3.56823 20.0529 4.92613 19.9265 5.2735C20.8423 6.23665 21.3318 7.53139 21.316 8.85771C21.316 13.9893 18.1423 15.1103 15.1107 15.4419C15.5844 15.8367 16.0265 16.6577 16.0265 17.9051C16.0265 19.7051 16.0107 21.1261 16.0107 21.5524C16.0107 21.8998 16.1686 22.184 16.9423 22.184L8.38443 22.263Z" fill="black"/>
</svg>
