<svg width="16" height="16" viewBox="0 0 16 16" fill="none" xmlns="http://www.w3.org/2000/svg">
<path fill-rule="evenodd" clip-rule="evenodd" d="M7.66064 14.3801C7.66064 14.3801 4.05264 11.0427 2.76597 9.79606C2.07264 9.15339 1.54597 8.35206 1.23197 7.46606C0.331305 5.11739 1.07131 3.55139 2.27464 2.43806C3.67797 1.14006 6.36997 0.98539 7.99997 3.12739C9.62997 0.98539 12.322 1.14006 13.7253 2.43806C14.928 3.55072 15.6673 5.11539 14.77 7.46139C14.454 8.35206 13.9273 9.15339 13.234 9.79606C11.9473 11.0427 8.33931 14.3801 8.33931 14.3801C8.14797 14.5574 7.85197 14.5574 7.66064 14.3801ZM7.99997 13.3314C8.92731 12.4727 11.502 10.0821 12.542 9.07472C12.5446 9.07206 12.5473 9.06939 12.55 9.06672C13.128 8.53206 13.5673 7.86406 13.8293 7.12206C13.8306 7.11739 13.832 7.11339 13.834 7.10872C14.5386 5.27206 13.9873 4.04272 13.046 3.17206C11.892 2.10406 9.59397 2.15272 8.43997 4.28806C8.35264 4.44939 8.18331 4.55006 7.99997 4.55006C7.81664 4.55006 7.64731 4.44939 7.55997 4.28806C6.40597 2.15272 4.10797 2.10406 2.95397 3.17206C2.01264 4.04272 1.46131 5.27206 2.16597 7.10872C2.16797 7.11339 2.16931 7.11739 2.17064 7.12206C2.43264 7.86406 2.87197 8.53206 3.44997 9.06672C3.45264 9.06939 3.45531 9.07206 3.45797 9.07472C4.49797 10.0821 7.07264 12.4727 7.99997 13.3314Z" fill="#BBBBBB"/>
</svg>
