<svg width="24" height="24" viewBox="0 0 24 24" fill="none" xmlns="http://www.w3.org/2000/svg">
<path d="M3.63209 2.86282L14.6985 2.04544C16.0578 1.92884 16.407 2.00744 17.2618 2.62883L20.7944 5.11738C21.3769 5.54537 21.5709 5.66197 21.5709 6.12796V19.7763C21.5709 20.6317 21.2603 21.1377 20.173 21.2149L7.32202 21.9933C6.50603 22.0319 6.11744 21.9153 5.69005 21.3707L3.0887 17.9879C2.62211 17.3653 2.42871 16.8994 2.42871 16.3546V4.2228C2.42871 3.52341 2.7393 2.94022 3.63209 2.86282Z" fill="white"/>
<path fill-rule="evenodd" clip-rule="evenodd" d="M14.6986 2.04564L3.6321 2.86303C2.73931 2.94023 2.42871 3.52362 2.42871 4.22281V16.3547C2.42871 16.8993 2.62211 17.3653 3.0887 17.988L5.69007 21.3706C6.11747 21.9152 6.50606 22.032 7.32205 21.9932L20.1733 21.2152C21.2599 21.1378 21.5713 20.6318 21.5713 19.7766V6.12819C21.5713 5.68619 21.3967 5.5588 20.8827 5.1816L17.2619 2.62883C16.4073 2.00744 16.0579 1.92884 14.6986 2.04544V2.04564ZM7.61265 5.90479C6.56326 5.97539 6.32526 5.99139 5.72927 5.5068L4.21409 4.30161C4.06009 4.14561 4.13749 3.95102 4.52549 3.91222L15.164 3.13482C16.0573 3.05683 16.5225 3.36822 16.8719 3.64022L18.6965 4.9622C18.7745 5.0016 18.9685 5.2342 18.7351 5.2342L7.74865 5.89559L7.61265 5.90479ZM6.38926 19.66V8.07357C6.38926 7.56757 6.54466 7.33417 7.00986 7.29498L19.6285 6.55618C20.0565 6.51758 20.2499 6.78958 20.2499 7.29478V18.804C20.2499 19.31 20.1719 19.738 19.4733 19.7766L7.39805 20.4766C6.69946 20.5152 6.38946 20.2826 6.38946 19.66H6.38926ZM18.3091 8.69476C18.3865 9.04475 18.3091 9.39475 17.9591 9.43475L17.3771 9.55015V18.1046C16.8717 18.3766 16.4065 18.532 16.0177 18.532C15.3964 18.532 15.2412 18.3374 14.7758 17.7547L10.9698 11.7667V17.5601L12.1738 17.8326C12.1738 17.8326 12.1738 18.5326 11.2024 18.5326L8.52444 18.688C8.44644 18.532 8.52444 18.1434 8.79583 18.066L9.49523 17.872V10.2121L8.52464 10.1335C8.44664 9.78355 8.64064 9.27815 9.18463 9.23895L12.058 9.04555L16.0179 15.1109V9.74495L15.0086 9.62895C14.9306 9.20035 15.2412 8.88896 15.6292 8.85096L18.3091 8.69476Z" fill="black"/>
</svg>
