<svg width="180" height="180" viewBox="0 0 180 180" fill="none" xmlns="http://www.w3.org/2000/svg">
<rect width="180" height="180" rx="90" fill="#DDDDDD"/>
<path d="M116.389 134.444H63.6117C60.0006 134.444 56.3895 132.499 54.445 129.444C52.2228 126.388 51.945 122.499 53.3339 118.888C58.8895 104.721 73.6117 95.2769 90.0006 95.2769C106.389 95.2769 121.112 104.721 126.667 118.888C128.056 122.221 127.778 126.388 125.556 129.444C123.612 132.499 120.001 134.444 116.389 134.444ZM90.0006 89.9991C77.7784 89.9991 67.7784 79.9991 67.7784 67.7769C67.7784 55.5547 77.7784 45.5547 90.0006 45.5547C102.223 45.5547 112.223 55.5547 112.223 67.7769C112.223 79.9991 102.223 89.9991 90.0006 89.9991Z" fill="white"/>
</svg>
