<svg width="24" height="24" viewBox="0 0 25 24" fill="none" xmlns="http://www.w3.org/2000/svg">
<path fill-rule="evenodd" clip-rule="evenodd" d="M18.6892 9.45632L15.0438 5.81091L5.03017 15.8301C4.87099 15.9854 4.75471 16.1792 4.69263 16.3927L3.5 21.0001L8.08488 19.8018C8.29849 19.74 8.49235 19.6237 8.64744 19.4643L18.6892 9.45632Z" fill="white"/>
<path fill-rule="evenodd" clip-rule="evenodd" d="M19.308 3.37493C19.0666 3.1348 18.7399 3 18.3994 3C18.0589 3 17.7323 3.1348 17.4909 3.37493L15.9495 4.91072L19.5892 8.5505L21.125 7.0147C21.3652 6.7733 21.5 6.44666 21.5 6.10617C21.5 5.76567 21.3652 5.43903 21.125 5.19763L19.308 3.37493Z" fill="white"/>
</svg>
