<svg width="24" height="24" viewBox="0 0 24 24" fill="none" xmlns="http://www.w3.org/2000/svg">
<path d="M19.9583 10.1683C19.8536 9.85138 19.5662 9.62627 19.2262 9.59629L14.6082 9.18608L12.7821 5.00479C12.6474 4.69836 12.3408 4.5 12.0001 4.5C11.6594 4.5 11.3527 4.69836 11.2181 5.00551L9.39198 9.18608L4.77321 9.59629C4.43385 9.62698 4.14722 9.85138 4.04187 10.1683C3.93652 10.4853 4.03381 10.8329 4.29053 11.052L7.78122 14.0469L6.7519 18.4825C6.67658 18.8087 6.80598 19.1458 7.0826 19.3414C7.23128 19.4465 7.40524 19.5 7.58066 19.5C7.73191 19.5 7.88193 19.4601 8.01658 19.3813L12.0001 17.0522L15.9821 19.3813C16.2735 19.5528 16.6408 19.5371 16.9168 19.3414C17.1936 19.1452 17.3229 18.808 17.2475 18.4825L16.2182 14.0469L19.7089 11.0526C19.9656 10.8329 20.0636 10.4859 19.9583 10.1683Z" fill="#FFC107"/>
</svg>
