<svg width="24" height="24" viewBox="0 0 24 24" fill="none" xmlns="http://www.w3.org/2000/svg">
<path d="M17.8844 17.262C17.9344 17.262 17.9845 17.262 18.0345 17.2666V9.65037C18.0345 6.5347 15.3286 4 12.0026 4C8.67655 4 5.9707 6.5347 5.9707 9.65037V17.2666C6.01572 17.262 6.06573 17.262 6.11575 17.262H17.8844Z" fill="#F8655F"/>
<path d="M17.8843 16.65H6.11566C4.9503 16.65 4 17.5402 4 18.6319V19.5314C4 19.7891 4.22507 20 4.50016 20H19.4998C19.7749 20 20 19.7891 20 19.5314V18.6319C20 17.5402 19.0497 16.65 17.8843 16.65Z" fill="#91A6BA"/>
</svg>
