<svg width="200" height="40" viewBox="0 0 200 40" fill="none" xmlns="http://www.w3.org/2000/svg">
<path d="M180.499 26.7321L184.855 12.4041H191.407L184.279 32.4921H176.683L169.555 12.4041H176.143L180.499 26.7321Z" fill="#000"/>
<path d="M168.935 22.124C168.935 22.7 168.899 23.3 168.827 23.924H154.895C154.991 25.172 155.387 26.132 156.083 26.804C156.803 27.452 157.679 27.776 158.711 27.776C160.247 27.776 161.315 27.128 161.915 25.832H168.467C168.131 27.152 167.519 28.34 166.631 29.396C165.767 30.452 164.675 31.28 163.355 31.88C162.035 32.48 160.559 32.78 158.927 32.78C156.959 32.78 155.207 32.36 153.671 31.52C152.135 30.68 150.935 29.48 150.071 27.92C149.207 26.36 148.775 24.536 148.775 22.448C148.775 20.36 149.195 18.536 150.035 16.976C150.899 15.416 152.099 14.216 153.635 13.376C155.171 12.536 156.935 12.116 158.927 12.116C160.871 12.116 162.599 12.524 164.111 13.34C165.623 14.156 166.799 15.32 167.639 16.832C168.503 18.344 168.935 20.108 168.935 22.124ZM162.635 20.504C162.635 19.448 162.275 18.608 161.555 17.984C160.835 17.36 159.935 17.048 158.855 17.048C157.823 17.048 156.947 17.348 156.227 17.948C155.531 18.548 155.099 19.4 154.931 20.504H162.635Z" fill="#000"/>
<path d="M134.031 7.21997C136.695 7.21997 139.023 7.74797 141.015 8.80397C143.007 9.85997 144.543 11.348 145.623 13.268C146.727 15.164 147.279 17.36 147.279 19.856C147.279 22.328 146.727 24.524 145.623 26.444C144.543 28.364 142.995 29.852 140.979 30.908C138.987 31.964 136.671 32.492 134.031 32.492H124.563V7.21997H134.031ZM133.635 27.164C135.963 27.164 137.775 26.528 139.071 25.256C140.367 23.984 141.015 22.184 141.015 19.856C141.015 17.528 140.367 15.716 139.071 14.42C137.775 13.124 135.963 12.476 133.635 12.476H130.719V27.164H133.635Z" fill="#000"/>
<path d="M116.04 15.752C116.76 14.648 117.66 13.784 118.74 13.16C119.82 12.512 121.02 12.188 122.34 12.188V18.704H120.648C119.112 18.704 117.96 19.04 117.192 19.712C116.424 20.36 116.04 21.512 116.04 23.168V32.492H109.884V12.404H116.04V15.752Z" fill="#3586FF"/>
<path d="M96.8265 32.78C94.8585 32.78 93.0825 32.36 91.4985 31.52C89.9385 30.68 88.7025 29.48 87.7905 27.92C86.9025 26.36 86.4585 24.536 86.4585 22.448C86.4585 20.384 86.9145 18.572 87.8265 17.012C88.7385 15.428 89.9865 14.216 91.5705 13.376C93.1545 12.536 94.9305 12.116 96.8985 12.116C98.8665 12.116 100.642 12.536 102.226 13.376C103.81 14.216 105.058 15.428 105.97 17.012C106.882 18.572 107.338 20.384 107.338 22.448C107.338 24.512 106.87 26.336 105.934 27.92C105.022 29.48 103.762 30.68 102.154 31.52C100.57 32.36 98.7945 32.78 96.8265 32.78ZM96.8265 27.452C98.0025 27.452 98.9985 27.02 99.8145 26.156C100.654 25.292 101.074 24.056 101.074 22.448C101.074 20.84 100.666 19.604 99.8505 18.74C99.0585 17.876 98.0745 17.444 96.8985 17.444C95.6985 17.444 94.7025 17.876 93.9105 18.74C93.1185 19.58 92.7225 20.816 92.7225 22.448C92.7225 24.056 93.1065 25.292 93.8745 26.156C94.6665 27.02 95.6505 27.452 96.8265 27.452Z" fill="#3586FF"/>
<path d="M85.167 7.21997V12.152H74.871V17.48H82.575V22.268H74.871V32.492H68.715V7.21997H85.167Z" fill="#3586FF"/>
<path d="M55.9358 26.7321L60.2918 12.4041H66.8438L59.7158 32.4921H52.1198L44.9918 12.4041H51.5798L55.9358 26.7321Z" fill="#000"/>
<path d="M44.3723 22.124C44.3723 22.7 44.3363 23.3 44.2643 23.924H30.3323C30.4283 25.172 30.8243 26.132 31.5203 26.804C32.2403 27.452 33.1163 27.776 34.1483 27.776C35.6843 27.776 36.7523 27.128 37.3523 25.832H43.9043C43.5683 27.152 42.9563 28.34 42.0683 29.396C41.2043 30.452 40.1123 31.28 38.7923 31.88C37.4723 32.48 35.9963 32.78 34.3643 32.78C32.3963 32.78 30.6443 32.36 29.1083 31.52C27.5723 30.68 26.3723 29.48 25.5083 27.92C24.6443 26.36 24.2123 24.536 24.2123 22.448C24.2123 20.36 24.6323 18.536 25.4723 16.976C26.3363 15.416 27.5363 14.216 29.0723 13.376C30.6083 12.536 32.3723 12.116 34.3643 12.116C36.3083 12.116 38.0363 12.524 39.5483 13.34C41.0603 14.156 42.2363 15.32 43.0763 16.832C43.9403 18.344 44.3723 20.108 44.3723 22.124ZM38.0723 20.504C38.0723 19.448 37.7123 18.608 36.9923 17.984C36.2723 17.36 35.3723 17.048 34.2923 17.048C33.2603 17.048 32.3843 17.348 31.6643 17.948C30.9683 18.548 30.5363 19.4 30.3683 20.504H38.0723Z" fill="#000"/>
<path d="M9.468 7.21997C12.132 7.21997 14.46 7.74797 16.452 8.80397C18.444 9.85997 19.98 11.348 21.06 13.268C22.164 15.164 22.716 17.36 22.716 19.856C22.716 22.328 22.164 24.524 21.06 26.444C19.98 28.364 18.432 29.852 16.416 30.908C14.424 31.964 12.108 32.492 9.468 32.492H0V7.21997H9.468ZM9.072 27.164C11.4 27.164 13.212 26.528 14.508 25.256C15.804 23.984 16.452 22.184 16.452 19.856C16.452 17.528 15.804 15.716 14.508 14.42C13.212 13.124 11.4 12.476 9.072 12.476H6.156V27.164H9.072Z" fill="#000"/>
<path d="M199.768 28.78C199.768 30.9892 197.977 32.78 195.768 32.78C193.559 32.78 191.768 30.9892 191.768 28.78C191.768 26.5709 193.559 24.78 195.768 24.78C197.977 24.78 199.768 26.5709 199.768 28.78Z" fill="#3586FF"/>
</svg>
