<svg width="220" height="46" viewBox="0 0 220 46" fill="none" xmlns="http://www.w3.org/2000/svg">
<path d="M190.615 29.512L194.971 15.184H201.523L194.395 35.272H186.799L179.671 15.184H186.259L190.615 29.512Z" fill="black" fill-opacity="0.3"/>
<path d="M179.051 24.904C179.051 25.48 179.015 26.08 178.943 26.704H165.011C165.107 27.952 165.503 28.912 166.199 29.584C166.919 30.232 167.795 30.556 168.827 30.556C170.363 30.556 171.431 29.908 172.031 28.612H178.583C178.247 29.932 177.635 31.12 176.747 32.176C175.883 33.232 174.791 34.06 173.471 34.66C172.151 35.26 170.675 35.56 169.043 35.56C167.075 35.56 165.323 35.14 163.787 34.3C162.251 33.46 161.051 32.26 160.187 30.7C159.323 29.14 158.891 27.316 158.891 25.228C158.891 23.14 159.311 21.316 160.151 19.756C161.015 18.196 162.215 16.996 163.751 16.156C165.287 15.316 167.051 14.896 169.043 14.896C170.987 14.896 172.715 15.304 174.227 16.12C175.739 16.936 176.915 18.1 177.755 19.612C178.619 21.124 179.051 22.888 179.051 24.904ZM172.751 23.284C172.751 22.228 172.391 21.388 171.671 20.764C170.951 20.14 170.051 19.828 168.971 19.828C167.939 19.828 167.063 20.128 166.343 20.728C165.647 21.328 165.215 22.18 165.047 23.284H172.751Z" fill="black" fill-opacity="0.3"/>
<path d="M144.147 10C146.811 10 149.139 10.528 151.131 11.584C153.123 12.64 154.659 14.128 155.739 16.048C156.843 17.944 157.395 20.14 157.395 22.636C157.395 25.108 156.843 27.304 155.739 29.224C154.659 31.144 153.111 32.632 151.095 33.688C149.103 34.744 146.787 35.272 144.147 35.272H134.679V10H144.147ZM143.751 29.944C146.079 29.944 147.891 29.308 149.187 28.036C150.483 26.764 151.131 24.964 151.131 22.636C151.131 20.308 150.483 18.496 149.187 17.2C147.891 15.904 146.079 15.256 143.751 15.256H140.835V29.944H143.751Z" fill="black" fill-opacity="0.3"/>
<path d="M126.156 18.532C126.876 17.428 127.776 16.564 128.856 15.94C129.936 15.292 131.136 14.968 132.456 14.968V21.484H130.764C129.228 21.484 128.076 21.82 127.308 22.492C126.54 23.14 126.156 24.292 126.156 25.948V35.272H120V15.184H126.156V18.532Z" fill="#3586FF"/>
<path d="M106.942 35.56C104.974 35.56 103.199 35.14 101.615 34.3C100.055 33.46 98.8185 32.26 97.9065 30.7C97.0185 29.14 96.5745 27.316 96.5745 25.228C96.5745 23.164 97.0305 21.352 97.9425 19.792C98.8545 18.208 100.103 16.996 101.687 16.156C103.271 15.316 105.046 14.896 107.014 14.896C108.982 14.896 110.758 15.316 112.342 16.156C113.926 16.996 115.175 18.208 116.087 19.792C116.999 21.352 117.454 23.164 117.454 25.228C117.454 27.292 116.986 29.116 116.05 30.7C115.139 32.26 113.878 33.46 112.271 34.3C110.687 35.14 108.91 35.56 106.942 35.56ZM106.942 30.232C108.118 30.232 109.114 29.8 109.93 28.936C110.77 28.072 111.19 26.836 111.19 25.228C111.19 23.62 110.782 22.384 109.966 21.52C109.174 20.656 108.19 20.224 107.014 20.224C105.814 20.224 104.818 20.656 104.026 21.52C103.234 22.36 102.839 23.596 102.839 25.228C102.839 26.836 103.223 28.072 103.991 28.936C104.783 29.8 105.766 30.232 106.942 30.232Z" fill="#3586FF"/>
<path d="M95.283 10V14.932H84.987V20.26H92.691V25.048H84.987V35.272H78.831V10H95.283Z" fill="#3586FF"/>
<path d="M66.0518 29.512L70.4078 15.184H76.9598L69.8318 35.272H62.2358L55.1078 15.184H61.6958L66.0518 29.512Z" fill="black" fill-opacity="0.3"/>
<path d="M54.4882 24.904C54.4882 25.48 54.4522 26.08 54.3803 26.704H40.4482C40.5442 27.952 40.9402 28.912 41.6362 29.584C42.3562 30.232 43.2322 30.556 44.2642 30.556C45.8003 30.556 46.8682 29.908 47.4682 28.612H54.0203C53.6842 29.932 53.0722 31.12 52.1842 32.176C51.3202 33.232 50.2282 34.06 48.9082 34.66C47.5882 35.26 46.1122 35.56 44.4802 35.56C42.5122 35.56 40.7602 35.14 39.2242 34.3C37.6882 33.46 36.4882 32.26 35.6242 30.7C34.7602 29.14 34.3282 27.316 34.3282 25.228C34.3282 23.14 34.7482 21.316 35.5882 19.756C36.4522 18.196 37.6522 16.996 39.1882 16.156C40.7242 15.316 42.4882 14.896 44.4802 14.896C46.4242 14.896 48.1522 15.304 49.6642 16.12C51.1762 16.936 52.3522 18.1 53.1922 19.612C54.0562 21.124 54.4882 22.888 54.4882 24.904ZM48.1882 23.284C48.1882 22.228 47.8282 21.388 47.1082 20.764C46.3882 20.14 45.4882 19.828 44.4082 19.828C43.3762 19.828 42.5002 20.128 41.7802 20.728C41.0842 21.328 40.6522 22.18 40.4842 23.284H48.1882Z" fill="black" fill-opacity="0.3"/>
<path d="M19.584 10C22.248 10 24.576 10.528 26.568 11.584C28.56 12.64 30.096 14.128 31.176 16.048C32.28 17.944 32.832 20.14 32.832 22.636C32.832 25.108 32.28 27.304 31.176 29.224C30.096 31.144 28.548 32.632 26.532 33.688C24.54 34.744 22.224 35.272 19.584 35.272H10.116V10H19.584ZM19.188 29.944C21.516 29.944 23.328 29.308 24.624 28.036C25.92 26.764 26.568 24.964 26.568 22.636C26.568 20.308 25.92 18.496 24.624 17.2C23.328 15.904 21.516 15.256 19.188 15.256H16.272V29.944H19.188Z" fill="black" fill-opacity="0.3"/>
<path d="M209.884 31.5601C209.884 33.7692 208.093 35.5601 205.884 35.5601C203.675 35.5601 201.884 33.7692 201.884 31.5601C201.884 29.3509 203.675 27.5601 205.884 27.5601C208.093 27.5601 209.884 29.3509 209.884 31.5601Z" fill="#3586FF"/>
</svg>
