<svg width="200" height="46" viewBox="0 0 200 46" fill="none" xmlns="http://www.w3.org/2000/svg">
<path d="M180.499 29.5121L184.855 15.1841H191.407L184.279 35.2721H176.683L169.555 15.1841H176.143L180.499 29.5121Z" fill="black"/>
<path d="M168.935 24.904C168.935 25.48 168.899 26.08 168.827 26.704H154.895C154.991 27.952 155.387 28.912 156.083 29.584C156.803 30.232 157.679 30.556 158.711 30.556C160.247 30.556 161.315 29.908 161.915 28.612H168.467C168.131 29.932 167.519 31.12 166.631 32.176C165.767 33.232 164.675 34.06 163.355 34.66C162.035 35.26 160.559 35.56 158.927 35.56C156.959 35.56 155.207 35.14 153.671 34.3C152.135 33.46 150.935 32.26 150.071 30.7C149.207 29.14 148.775 27.316 148.775 25.228C148.775 23.14 149.195 21.316 150.035 19.756C150.899 18.196 152.099 16.996 153.635 16.156C155.171 15.316 156.935 14.896 158.927 14.896C160.871 14.896 162.599 15.304 164.111 16.12C165.623 16.936 166.799 18.1 167.639 19.612C168.503 21.124 168.935 22.888 168.935 24.904ZM162.635 23.284C162.635 22.228 162.275 21.388 161.555 20.764C160.835 20.14 159.935 19.828 158.855 19.828C157.823 19.828 156.947 20.128 156.227 20.728C155.531 21.328 155.099 22.18 154.931 23.284H162.635Z" fill="black"/>
<path d="M134.031 10C136.695 10 139.023 10.528 141.015 11.584C143.007 12.64 144.543 14.128 145.623 16.048C146.727 17.944 147.279 20.14 147.279 22.636C147.279 25.108 146.727 27.304 145.623 29.224C144.543 31.144 142.995 32.632 140.979 33.688C138.987 34.744 136.671 35.272 134.031 35.272H124.563V10H134.031ZM133.635 29.944C135.963 29.944 137.775 29.308 139.071 28.036C140.367 26.764 141.015 24.964 141.015 22.636C141.015 20.308 140.367 18.496 139.071 17.2C137.775 15.904 135.963 15.256 133.635 15.256H130.719V29.944H133.635Z" fill="black"/>
<path d="M116.04 18.532C116.76 17.428 117.66 16.564 118.74 15.94C119.82 15.292 121.02 14.968 122.34 14.968V21.484H120.648C119.112 21.484 117.96 21.82 117.192 22.492C116.424 23.14 116.04 24.292 116.04 25.948V35.272H109.884V15.184H116.04V18.532Z" fill="#3586FF"/>
<path d="M96.8265 35.56C94.8585 35.56 93.0825 35.14 91.4985 34.3C89.9385 33.46 88.7025 32.26 87.7905 30.7C86.9025 29.14 86.4585 27.316 86.4585 25.228C86.4585 23.164 86.9145 21.352 87.8265 19.792C88.7385 18.208 89.9865 16.996 91.5705 16.156C93.1545 15.316 94.9305 14.896 96.8985 14.896C98.8665 14.896 100.643 15.316 102.227 16.156C103.811 16.996 105.059 18.208 105.971 19.792C106.883 21.352 107.339 23.164 107.339 25.228C107.339 27.292 106.871 29.116 105.935 30.7C105.023 32.26 103.763 33.46 102.155 34.3C100.571 35.14 98.7945 35.56 96.8265 35.56ZM96.8265 30.232C98.0025 30.232 98.9985 29.8 99.8145 28.936C100.654 28.072 101.075 26.836 101.075 25.228C101.075 23.62 100.667 22.384 99.8505 21.52C99.0585 20.656 98.0745 20.224 96.8985 20.224C95.6985 20.224 94.7025 20.656 93.9105 21.52C93.1185 22.36 92.7225 23.596 92.7225 25.228C92.7225 26.836 93.1065 28.072 93.8745 28.936C94.6665 29.8 95.6505 30.232 96.8265 30.232Z" fill="#3586FF"/>
<path d="M85.167 10V14.932H74.871V20.26H82.575V25.048H74.871V35.272H68.715V10H85.167Z" fill="#3586FF"/>
<path d="M55.9358 29.5121L60.2918 15.1841H66.8438L59.7158 35.2721H52.1198L44.9918 15.1841H51.5798L55.9358 29.5121Z" fill="black"/>
<path d="M44.3723 24.904C44.3723 25.48 44.3363 26.08 44.2643 26.704H30.3323C30.4283 27.952 30.8243 28.912 31.5203 29.584C32.2403 30.232 33.1163 30.556 34.1483 30.556C35.6843 30.556 36.7523 29.908 37.3523 28.612H43.9043C43.5683 29.932 42.9563 31.12 42.0683 32.176C41.2043 33.232 40.1122 34.06 38.7922 34.66C37.4722 35.26 35.9963 35.56 34.3643 35.56C32.3963 35.56 30.6442 35.14 29.1082 34.3C27.5722 33.46 26.3723 32.26 25.5083 30.7C24.6443 29.14 24.2122 27.316 24.2122 25.228C24.2122 23.14 24.6322 21.316 25.4722 19.756C26.3363 18.196 27.5363 16.996 29.0723 16.156C30.6083 15.316 32.3723 14.896 34.3643 14.896C36.3083 14.896 38.0363 15.304 39.5483 16.12C41.0602 16.936 42.2362 18.1 43.0763 19.612C43.9402 21.124 44.3723 22.888 44.3723 24.904ZM38.0723 23.284C38.0723 22.228 37.7123 21.388 36.9923 20.764C36.2723 20.14 35.3722 19.828 34.2922 19.828C33.2602 19.828 32.3843 20.128 31.6643 20.728C30.9683 21.328 30.5363 22.18 30.3682 23.284H38.0723Z" fill="black"/>
<path d="M9.468 10C12.132 10 14.46 10.528 16.452 11.584C18.444 12.64 19.98 14.128 21.06 16.048C22.164 17.944 22.716 20.14 22.716 22.636C22.716 25.108 22.164 27.304 21.06 29.224C19.98 31.144 18.432 32.632 16.416 33.688C14.424 34.744 12.108 35.272 9.468 35.272H0V10H9.468ZM9.072 29.944C11.4 29.944 13.212 29.308 14.508 28.036C15.804 26.764 16.452 24.964 16.452 22.636C16.452 20.308 15.804 18.496 14.508 17.2C13.212 15.904 11.4 15.256 9.072 15.256H6.156V29.944H9.072Z" fill="black"/>
<path d="M199.768 31.5601C199.768 33.7692 197.977 35.5601 195.768 35.5601C193.559 35.5601 191.768 33.7692 191.768 31.5601C191.768 29.3509 193.559 27.5601 195.768 27.5601C197.977 27.5601 199.768 29.3509 199.768 31.5601Z" fill="#3586FF"/>
</svg>
