<svg width="202" height="44" viewBox="0 0 202 44" fill="none" xmlns="http://www.w3.org/2000/svg">
<path d="M11.7 9.728C14.364 9.728 16.692 10.256 18.684 11.312C20.676 12.368 22.212 13.856 23.292 15.776C24.396 17.672 24.948 19.868 24.948 22.364C24.948 24.836 24.396 27.032 23.292 28.952C22.212 30.872 20.664 32.36 18.648 33.416C16.656 34.472 14.34 35 11.7 35H2.232V9.728H11.7ZM11.304 29.672C13.632 29.672 15.444 29.036 16.74 27.764C18.036 26.492 18.684 24.692 18.684 22.364C18.684 20.036 18.036 18.224 16.74 16.928C15.444 15.632 13.632 14.984 11.304 14.984H8.388V29.672H11.304ZM46.6043 24.632C46.6043 25.208 46.5683 25.808 46.4963 26.432H32.5643C32.6603 27.68 33.0563 28.64 33.7523 29.312C34.4723 29.96 35.3483 30.284 36.3803 30.284C37.9163 30.284 38.9843 29.636 39.5843 28.34H46.1363C45.8003 29.66 45.1883 30.848 44.3003 31.904C43.4363 32.96 42.3443 33.788 41.0243 34.388C39.7043 34.988 38.2283 35.288 36.5963 35.288C34.6283 35.288 32.8763 34.868 31.3403 34.028C29.8043 33.188 28.6043 31.988 27.7403 30.428C26.8763 28.868 26.4443 27.044 26.4443 24.956C26.4443 22.868 26.8643 21.044 27.7043 19.484C28.5683 17.924 29.7683 16.724 31.3043 15.884C32.8403 15.044 34.6043 14.624 36.5963 14.624C38.5403 14.624 40.2683 15.032 41.7803 15.848C43.2923 16.664 44.4683 17.828 45.3083 19.34C46.1723 20.852 46.6043 22.616 46.6043 24.632ZM40.3043 23.012C40.3043 21.956 39.9443 21.116 39.2243 20.492C38.5043 19.868 37.6043 19.556 36.5243 19.556C35.4923 19.556 34.6163 19.856 33.8963 20.456C33.2003 21.056 32.7683 21.908 32.6003 23.012H40.3043ZM58.1678 29.24L62.5238 14.912H69.0758L61.9478 35H54.3518L47.2238 14.912H53.8118L58.1678 29.24ZM136.263 9.728C138.927 9.728 141.255 10.256 143.247 11.312C145.239 12.368 146.775 13.856 147.855 15.776C148.959 17.672 149.511 19.868 149.511 22.364C149.511 24.836 148.959 27.032 147.855 28.952C146.775 30.872 145.227 32.36 143.211 33.416C141.219 34.472 138.903 35 136.263 35H126.795V9.728H136.263ZM135.867 29.672C138.195 29.672 140.007 29.036 141.303 27.764C142.599 26.492 143.247 24.692 143.247 22.364C143.247 20.036 142.599 18.224 141.303 16.928C140.007 15.632 138.195 14.984 135.867 14.984H132.951V29.672H135.867ZM171.167 24.632C171.167 25.208 171.131 25.808 171.059 26.432H157.127C157.223 27.68 157.619 28.64 158.315 29.312C159.035 29.96 159.911 30.284 160.943 30.284C162.479 30.284 163.547 29.636 164.147 28.34H170.699C170.363 29.66 169.751 30.848 168.863 31.904C167.999 32.96 166.907 33.788 165.587 34.388C164.267 34.988 162.791 35.288 161.159 35.288C159.191 35.288 157.439 34.868 155.903 34.028C154.367 33.188 153.167 31.988 152.303 30.428C151.439 28.868 151.007 27.044 151.007 24.956C151.007 22.868 151.427 21.044 152.267 19.484C153.131 17.924 154.331 16.724 155.867 15.884C157.403 15.044 159.167 14.624 161.159 14.624C163.103 14.624 164.831 15.032 166.343 15.848C167.855 16.664 169.031 17.828 169.871 19.34C170.735 20.852 171.167 22.616 171.167 24.632ZM164.867 23.012C164.867 21.956 164.507 21.116 163.787 20.492C163.067 19.868 162.167 19.556 161.087 19.556C160.055 19.556 159.179 19.856 158.459 20.456C157.763 21.056 157.331 21.908 157.163 23.012H164.867ZM182.731 29.24L187.087 14.912H193.639L186.511 35H178.915L171.787 14.912H178.375L182.731 29.24Z" fill="white"/>
<path d="M87.399 9.728V14.66H77.103V19.988H84.807V24.776H77.103V35H70.947V9.728H87.399ZM99.0585 35.288C97.0905 35.288 95.3145 34.868 93.7305 34.028C92.1705 33.188 90.9345 31.988 90.0225 30.428C89.1345 28.868 88.6905 27.044 88.6905 24.956C88.6905 22.892 89.1465 21.08 90.0585 19.52C90.9705 17.936 92.2185 16.724 93.8025 15.884C95.3865 15.044 97.1625 14.624 99.1305 14.624C101.099 14.624 102.875 15.044 104.459 15.884C106.043 16.724 107.291 17.936 108.203 19.52C109.115 21.08 109.571 22.892 109.571 24.956C109.571 27.02 109.103 28.844 108.167 30.428C107.255 31.988 105.995 33.188 104.387 34.028C102.803 34.868 101.027 35.288 99.0585 35.288ZM99.0585 29.96C100.235 29.96 101.231 29.528 102.047 28.664C102.887 27.8 103.307 26.564 103.307 24.956C103.307 23.348 102.899 22.112 102.083 21.248C101.291 20.384 100.307 19.952 99.1305 19.952C97.9305 19.952 96.9345 20.384 96.1425 21.248C95.3505 22.088 94.9545 23.324 94.9545 24.956C94.9545 26.564 95.3385 27.8 96.1065 28.664C96.8985 29.528 97.8825 29.96 99.0585 29.96ZM118.272 18.26C118.992 17.156 119.892 16.292 120.972 15.668C122.052 15.02 123.252 14.696 124.572 14.696V21.212H122.88C121.344 21.212 120.192 21.548 119.424 22.22C118.656 22.868 118.272 24.02 118.272 25.676V35H112.116V14.912H118.272V18.26Z" fill="#3586FF"/>
<circle cx="198" cy="31" r="4" fill="#3586FF"/>
</svg>
